Coordinates
version=1
nRows=32
nColumns=12
inDegrees=yes

Units are S.I. units (second, meters, Newtons, ...)
Angles are in degrees

endheader
time	SC_y	SC_z	SC_x	AC_y	AC_z	AC_x	GH_y	GH_z	GH_yy	EL_x	PS_y
       0.0               -27.4          17.54          56.17          36.02         -14.56          17.56         -77.89          66.97          51.52          66.41          98.77
   0.04154               -27.4          17.54          56.17          36.02         -14.56          17.56         -77.88          66.96          51.49          66.41          98.78
   0.08308               -27.4          17.55          56.16          36.02         -14.57          17.55         -77.88          66.95          51.46          66.41          98.78
    0.1246               -27.4          17.55          56.15          36.02         -14.57          17.55         -77.87          66.94          51.43          66.41          98.79
    0.1662               -27.4          17.55          56.15          36.02         -14.57          17.55         -77.86          66.93           51.4          66.41           98.8
    0.2077               -27.4          17.55          56.14          36.02         -14.57          17.54         -77.85          66.91          51.37          66.41          98.81
    0.2492               -27.4          17.55          56.13          36.02         -14.57          17.54         -77.84           66.9          51.33          66.41          98.82
    0.2908               -27.4          17.55          56.12          36.02         -14.57          17.54         -77.83          66.88          51.29          66.41          98.83
    0.3323               -27.4          17.55          56.11          36.02         -14.57          17.53         -77.81          66.87          51.25          66.41          98.84
    0.3739               -27.4          17.56           56.1          36.02         -14.57          17.53          -77.8          66.85           51.2          66.41          98.85
    0.4154               -27.4          17.56          56.09          36.02         -14.57          17.53         -77.79          66.83          51.15          66.41          98.86
    0.4569               -27.4          17.56          56.08          36.01         -14.57          17.52         -77.77          66.81           51.1          66.41          98.87
    0.4985               -27.4          17.56          56.06          36.01         -14.57          17.51         -77.76          66.79          51.04          66.41          98.89
      0.54               -27.4          17.57          56.05          36.01         -14.57          17.51         -77.74          66.76          50.98           66.4           98.9
    0.5815               -27.4          17.57          56.03          36.01         -14.57           17.5         -77.72          66.74          50.92           66.4          98.92
    0.6231               -27.4          17.57          56.02          36.01         -14.57           17.5          -77.7          66.71          50.85           66.4          98.94
    0.6646               -27.4          17.57           56.0          36.01         -14.58          17.49         -77.68          66.68          50.77           66.4          98.96
    0.7062              -27.41          17.58          55.98          36.01         -14.58          17.48         -77.65          66.65          50.68           66.4          98.98
    0.7477              -27.41          17.58          55.96           36.0         -14.58          17.47         -77.63          66.61          50.59           66.4           99.0
    0.7892              -27.41          17.59          55.94           36.0         -14.58          17.46          -77.6          66.57          50.49           66.4          99.03
    0.8308              -27.41          17.59          55.91           36.0         -14.58          17.45         -77.57          66.53          50.38           66.4          99.06
    0.8723              -27.41          17.59          55.88           36.0         -14.58          17.44         -77.53          66.48          50.25          66.39          99.09
    0.9139              -27.41           17.6          55.85           36.0         -14.58          17.43         -77.49          66.43          50.12          66.39          99.12
    0.9554              -27.41          17.61          55.82          35.99         -14.59          17.42         -77.45          66.37          49.97          66.39          99.16
    0.9969              -27.41          17.61          55.78          35.99         -14.59           17.4          -77.4          66.31           49.8          66.39           99.2
     1.038              -27.41          17.62          55.74          35.99         -14.59          17.38         -77.35          66.24          49.62          66.38          99.25
      1.08              -27.42          17.63          55.69          35.98         -14.59          17.36         -77.29          66.16          49.41          66.38           99.3
     1.122              -27.42          17.64          55.63          35.98          -14.6          17.34         -77.22          66.07          49.17          66.38          99.36
     1.163              -27.42          17.65          55.57          35.97          -14.6          17.32         -77.14          65.96          48.91          66.37          99.42
     1.205              -27.42          17.66           55.5          35.97         -14.61          17.29         -77.06          65.85          48.61          66.37           99.5
     1.246              -27.43          17.67          55.43          35.96         -14.61          17.26         -76.96          65.72          48.26          66.36          99.58
     1.288              -27.43          17.69          55.33          35.95         -14.62          17.22         -76.85          65.56          47.87          66.36          99.68
